<?xml version="1.0" encoding="UTF-8" standalone="no" ?>
<!DOCTYPE svg PUBLIC "-//W3C//DTD SVG 1.1//EN" "http://www.w3.org/Graphics/SVG/1.1/DTD/svg11.dtd">
<svg xmlns="http://www.w3.org/2000/svg" xmlns:xlink="http://www.w3.org/1999/xlink" version="1.1" width="1280" height="1024" viewBox="0 0 1280 1024" xml:space="preserve">
<desc>Created with Fabric.js 5.3.0</desc>
<defs>
</defs>
<g transform="matrix(1 0 0 1 640 512)" id="background-logo"  >
<rect style="stroke: none; strokeWidth: 0; stroke-dasharray: none; strokeLinecap: butt; stroke-dashoffset: 0; strokeLinejoin: miter; stroke-miterlimit: 4; fill: rgb(255,255,255); fill-rule: nonzero; opacity: 1;"  paint-order="stroke"  x="-640" y="-512" rx="0" ry="0" width="1280" height="1024" />
</g>
<g transform="matrix(4.760771710870692 0 0 4.760771710870691 640.065592499212 512.0524739993697)" id="logo-logo"  >
<g style=""  paint-order="stroke"   >
		<g transform="matrix(0.6221491168936226 0 0 0.6221491168936226 0 0)"  >
<linearGradient id="SVGID_56_32857" gradientUnits="userSpaceOnUse" gradientTransform="matrix(1 0 0 1 -147.84 -147.84)"  x1="147.83999999999997" y1="0" x2="147.84000000000003" y2="295.68">
<stop offset="0%" style="stop-color:rgb(22,42,71);stop-opacity: 1"/>
<stop offset="48.000000000000014%" style="stop-color:rgb(51,98,166);stop-opacity: 1"/>
<stop offset="89%" style="stop-color:rgb(22,42,71);stop-opacity: 1"/>
</linearGradient>
<circle style="stroke: none; strokeWidth: 1; stroke-dasharray: none; strokeLinecap: butt; stroke-dashoffset: 0; strokeLinejoin: miter; stroke-miterlimit: 4; fill: url(#SVGID_56_32857); fill-rule: nonzero; opacity: 1;"  paint-order="stroke"  cx="0" cy="0" r="147.84" />
</g>
		<g transform="matrix(0.6221491168936226 0 0 0.6221491168936226 0 -1.2689677737292868)"  >
<path style="stroke: none; strokeWidth: 1; stroke-dasharray: none; strokeLinecap: butt; stroke-dashoffset: 0; strokeLinejoin: miter; stroke-miterlimit: 4; fill: rgb(255,255,255); fill-rule: nonzero; opacity: 1;"  paint-order="stroke"  transform=" translate(-600, -497.96034786633595)" d="M 699.19 460.56 C 692.6400000000001 440.39 678.5300000000001 423.19 660.97 411.36 C 634.13 393.18 599.0600000000001 388.32 568.1 397.66 C 537.61 406.66 510.74 430.04 500.8 460.56 L 500.8 460.56 C 499.40000000000003 465.27 505.63 468.17 508.35 464.14 C 510.96000000000004 460.14 513.73 456.3 516.72 452.69 C 536.9 427.99 568.13 413.18 599.99 413.39 C 631.85 413.18 663.08 427.97999999999996 683.26 452.69 C 686.25 456.31 689.03 460.14 691.64 464.15 C 694.4 468.17999999999995 700.5699999999999 465.26 699.1899999999999 460.56 Z M 600.01 439.46 C 554.8199999999999 439.46 518.18 468.74 518.18 504.86 C 518.18 540.98 554.8199999999999 570.26 600.01 570.26 C 604.31 570.26 608.54 569.99 612.67 569.48 C 619.0699999999999 569.0600000000001 625.18 582.83 614.02 593.4300000000001 C 606.04 601.0100000000001 636.55 590.8700000000001 655.3 572.7900000000001 C 670.92 557.7300000000001 681.8299999999999 537.08 681.8299999999999 505.7100000000001 L 681.8299999999999 504.86000000000007 L 681.8399999999999 504.86000000000007 C 681.8399999999999 468.74000000000007 645.1999999999999 439.46000000000004 600.0099999999999 439.46000000000004 Z M 693.32 472.84 C 691.4200000000001 482.78999999999996 688.58 513.14 691.47 553.4399999999999 C 708.1700000000001 551.03 722.85 532.02 722.85 511.91999999999996 C 722.85 491.81999999999994 709.97 475.29999999999995 693.32 472.84 Z M 506.68 472.84 C 490.03000000000003 475.29999999999995 477.15 491.82 477.15 511.91999999999996 C 477.15 532.02 491.83 551.03 508.53 553.4399999999999 C 511.41999999999996 513.14 508.58 482.78999999999996 506.67999999999995 472.8399999999999 Z M 601.81 582.13 C 575.8399999999999 585.56 553.7099999999999 579.11 539.3699999999999 572.82 C 523.1299999999999 565.7 513.7299999999999 557.5100000000001 513.6399999999999 557.4300000000001 C 512.1299999999999 556.1 509.7999999999999 556.0600000000001 508.41999999999985 557.35 C 507.03999999999985 558.64 507.14999999999986 560.78 508.67999999999984 562.12 C 508.71999999999986 562.16 508.8899999999998 562.3 509.1299999999998 562.5 C 508.7099999999998 562.31 508.4599999999998 562.2 508.4599999999998 562.2 L 508.4599999999998 562.2 C 508.4599999999998 562.2 524.3699999999998 582.9100000000001 560.1499999999999 590.5500000000001 C 560.1499999999999 590.5500000000001 569.4299999999998 602.9000000000001 582.7099999999998 602.9000000000001 C 595.0899999999998 602.9000000000001 603.1399999999998 593.1200000000001 604.8499999999998 586.5500000000001 C 605.1299999999998 586.0100000000001 605.2399999999998 585.3700000000001 605.1299999999998 584.7 C 604.8599999999998 583.07 603.3799999999998 581.9200000000001 601.8199999999998 582.13 Z" strokeLinecap="round" />
</g>
		<g transform="matrix(0.6221491168936226 0 0 0.6221491168936226 0 5.431361790481333)"  >
<linearGradient id="SVGID_57_32858" gradientUnits="userSpaceOnUse" gradientTransform="matrix(1 0 0 1 559.86 493.04999999999995)"  x1="40.139999999999986" y1="0" x2="40.139999999999986" y2="31.36000000000007">
<stop offset="0%" style="stop-color:rgb(22,42,71);stop-opacity: 1"/>
<stop offset="48.000000000000014%" style="stop-color:rgb(51,98,166);stop-opacity: 1"/>
<stop offset="89%" style="stop-color:rgb(22,42,71);stop-opacity: 1"/>
</linearGradient>
<path style="stroke: none; strokeWidth: 1; stroke-dasharray: none; strokeLinecap: butt; stroke-dashoffset: 0; strokeLinejoin: miter; stroke-miterlimit: 4; fill: url(#SVGID_57_32858); fill-rule: nonzero; opacity: 1;"  paint-order="stroke"  transform=" translate(-600, -508.73)" d="M 565.71 493.05 C 562.48 493.05 559.86 495.67 559.86 498.90000000000003 L 559.86 518.5600000000001 C 559.86 521.7900000000001 562.48 524.4100000000001 565.71 524.4100000000001 C 568.94 524.4100000000001 571.5600000000001 521.7900000000001 571.5600000000001 518.5600000000001 L 571.5600000000001 498.90000000000003 C 571.5600000000001 495.67 568.94 493.05 565.71 493.05 Z M 634.29 493.05 C 631.06 493.05 628.4399999999999 495.67 628.4399999999999 498.90000000000003 L 628.4399999999999 518.5600000000001 C 628.4399999999999 521.7900000000001 631.06 524.4100000000001 634.29 524.4100000000001 C 637.52 524.4100000000001 640.14 521.7900000000001 640.14 518.5600000000001 L 640.14 498.90000000000003 C 640.14 495.67 637.52 493.05 634.29 493.05 Z M 600 493.05 C 596.77 493.05 594.15 495.67 594.15 498.90000000000003 L 594.15 518.5600000000001 C 594.15 521.7900000000001 596.77 524.4100000000001 600 524.4100000000001 C 603.23 524.4100000000001 605.85 521.7900000000001 605.85 518.5600000000001 L 605.85 498.90000000000003 C 605.85 495.67 603.23 493.05 600 493.05 Z" strokeLinecap="round" />
</g>
</g>
</g>
<g transform="matrix(1.9211538461538462 0 0 1.9211538461538462 582.4532960309793 509.6735512021454)" id="tagline-7afa8fbb-a881-4be0-9f02-5954b0622e8f-logo"  >
<g style=""  paint-order="stroke"   >
		<g transform="matrix(1 0 0 1 0 0)" id="tagline-7afa8fbb-a881-4be0-9f02-5954b0622e8f-logo-path-0"  >
<linearGradient id="SVGID_32859" gradientUnits="userSpaceOnUse" gradientTransform="matrix(1 0 0 1 -1.8900000000000006 -87.72)"  x1="71.2737219925205" y1="-12.494482373806164" x2="71.27372199252054" y2="41.74551762619382">
<stop offset="0%" style="stop-color:rgb(22,42,71);stop-opacity: 1"/>
<stop offset="48.000000000000014%" style="stop-color:rgb(51,98,166);stop-opacity: 1"/>
<stop offset="89%" style="stop-color:rgb(22,42,71);stop-opacity: 1"/>
</linearGradient>
<path style="stroke: rgb(255,255,255); strokeWidth: 9.49900108819818; stroke-dasharray: none; strokeLinecap: butt; stroke-dashoffset: 0; strokeLinejoin: miter; stroke-miterlimit: 4; fill: url(#SVGID_32859); fill-rule: nonzero; opacity: 1;"  paint-order="stroke"  transform=" translate(-48.925, 42.745)" d="M 65.85 2.23 L 65.85 2.23 Q 47.31 2.23 47.31 -10.07 L 47.31 -10.07 Q 47.31 -17.09 56.16 -38.1 Q 65.01 -59.11 65.01 -67.24 L 65.01 -67.24 Q 65.01 -71.8 61.64 -73.72 Q 58.28 -75.64 51.9 -75.64 Q 45.53 -75.64 38.96 -74.53 Q 32.39 -73.42 30.53 -73.42 Q 28.66 -73.42 28.66 -75.09 L 28.66 -75.09 Q 28.66 -77.26 36.51 -80.82 L 36.51 -80.82 Q 51.6 -87.72 69.74 -87.72 L 69.74 -87.72 Q 84.1 -87.72 91.25 -82.54 Q 98.41 -77.37 98.41 -65.73 L 98.41 -65.73 Q 98.41 -58.83 95.96 -48.45 Q 93.51 -38.07 91.09 -28.94 Q 88.67 -19.81 88.67 -16.42 Q 88.67 -13.02 89.95 -11.69 L 89.95 -11.69 Q 91.56 -10.02 96.18 -10.02 L 96.18 -10.02 Q 99.02 -10.02 99.38 -9.41 Q 99.74 -8.79 99.74 -8.13 L 99.74 -8.13 Q 99.74 -5.57 97.4 -3.95 L 97.4 -3.95 Q 88.56 2.23 65.85 2.23 Z M 32.67 -38.07 L 33.45 -38.07 L 47.7 -38.41 Q 51.6 -38.41 51.6 -36.12 L 51.6 -36.12 Q 51.6 -34.51 49.76 -33.56 L 49.76 -33.56 Q 43.3 -30.28 27.5 -29.39 L 27.5 -29.39 Q 22.99 -20.48 22.99 -13.75 L 22.99 -13.75 Q 22.99 -10.74 23.77 -8.21 Q 24.55 -5.68 24.55 -4.56 L 24.55 -4.56 Q 24.55 -1.61 20.82 -0.58 Q 17.09 0.45 9.88 0.45 Q 2.67 0.45 0.39 -0.86 Q -1.89 -2.17 -1.89 -5.51 L -1.89 -5.51 Q -1.89 -11.74 1.75 -19.26 Q 5.4 -26.77 11.08 -33.65 Q 16.75 -40.52 23.66 -47.14 Q 30.56 -53.77 37.07 -58.55 L 37.07 -58.55 Q 51.54 -69.3 56.77 -69.3 L 56.77 -69.3 Q 59.17 -69.3 59.17 -67.85 Q 59.17 -66.4 56.83 -64.62 L 56.83 -64.62 Q 51.88 -61 44.97 -53.6 Q 38.07 -46.2 32.67 -38.07 L 32.67 -38.07 Z" strokeLinecap="round" />
</g>
</g>
</g>
<g transform="matrix(1.9211538461538462 0 0 1.9211538461538462 731.0671073324961 511.4751334083888)" id="tagline-6c3ca075-29e4-4faa-aa34-aeea88a66304-logo"  >
<g style=""  paint-order="stroke"   >
		<g transform="matrix(1 0 0 1 0 0)" id="tagline-6c3ca075-29e4-4faa-aa34-aeea88a66304-logo-path-0"  >
<linearGradient id="SVGID_32860" gradientUnits="userSpaceOnUse" gradientTransform="matrix(1 0 0 1 4.670000000000001 -81.85)"  x1="64.70584409970294" y1="-18.368614638111865" x2="64.70584409970297" y2="35.87138536188812">
<stop offset="0%" style="stop-color:rgb(22,42,71);stop-opacity: 1"/>
<stop offset="48.000000000000014%" style="stop-color:rgb(51,98,166);stop-opacity: 1"/>
<stop offset="89%" style="stop-color:rgb(22,42,71);stop-opacity: 1"/>
</linearGradient>
<path style="stroke: rgb(255,255,255); strokeWidth: 9.49900108819818; stroke-dasharray: none; strokeLinecap: butt; stroke-dashoffset: 0; strokeLinejoin: miter; stroke-miterlimit: 4; fill: url(#SVGID_32860); fill-rule: nonzero; opacity: 1;"  paint-order="stroke"  transform=" translate(-12.14, 39.445)" d="M 11.97 -59.16 C 8.44 -59.16 5.59 -56.31 5.59 -52.78 L 5.59 -3.42 C 5.59 0.11 8.44 2.96 11.97 2.96 C 15.39 2.96 18.69 0.11 18.69 -3.42 L 18.69 -52.78 C 18.69 -56.31 15.39 -59.16 11.97 -59.16 Z M 12.31 -65.89 C 16.41 -65.89 19.61 -69.88 19.61 -73.87 C 19.61 -77.63 17.21 -81.85 13.11 -81.85 C 9.12 -81.85 4.67 -77.97 4.67 -73.87 C 4.67 -69.88 8.21 -65.89 12.31 -65.89 Z" strokeLinecap="round" />
</g>
</g>
</g>
</svg>