<?xml version="1.0" encoding="UTF-8" standalone="no" ?>
<!DOCTYPE svg PUBLIC "-//W3C//DTD SVG 1.1//EN" "http://www.w3.org/Graphics/SVG/1.1/DTD/svg11.dtd">
<svg xmlns="http://www.w3.org/2000/svg" xmlns:xlink="http://www.w3.org/1999/xlink" version="1.1" width="1280" height="1024" viewBox="0 0 1280 1024" xml:space="preserve">
<desc>Created with Fabric.js 5.3.0</desc>
<defs>
</defs>
<g transform="matrix(1 0 0 1 640 512)" id="background-logo"  >
<rect style="stroke: none; stroke-width: 0; stroke-dasharray: none; stroke-linecap: butt; stroke-dashoffset: 0; stroke-linejoin: miter; stroke-miterlimit: 4; fill: rgb(255,255,255); fill-rule: nonzero; opacity: 1;"  paint-order="stroke"  x="-640" y="-512" rx="0" ry="0" width="1280" height="1024" />
</g>
<g transform="matrix(3.427902665828789 0 0 3.427902665828789 640.065592499212 472.2140618640198)" id="logo-logo"  >
<g style=""  paint-order="stroke"   >
		<g transform="matrix(0.6221491168936226 0 0 0.6221491168936226 0 0)"  >
<linearGradient id="SVGID_14_149962" gradientUnits="userSpaceOnUse" gradientTransform="matrix(1 0 0 1 -147.84 -147.84)"  x1="147.83999999999997" y1="0" x2="147.84000000000003" y2="295.68">
<stop offset="0%" style="stop-color:rgb(22,42,71);stop-opacity: 1"/>
<stop offset="48.000000000000014%" style="stop-color:rgb(51,98,166);stop-opacity: 1"/>
<stop offset="89%" style="stop-color:rgb(22,42,71);stop-opacity: 1"/>
</linearGradient>
<circle style="stroke: none; stroke-width: 1; stroke-dasharray: none; stroke-linecap: butt; stroke-dashoffset: 0; stroke-linejoin: miter; stroke-miterlimit: 4; fill: url(#SVGID_14_149962); fill-rule: nonzero; opacity: 1;"  paint-order="stroke"  cx="0" cy="0" r="147.84" />
</g>
		<g transform="matrix(0.6221491168936226 0 0 0.6221491168936226 0 -1.2689677737292868)"  >
<path style="stroke: none; stroke-width: 1; stroke-dasharray: none; stroke-linecap: butt; stroke-dashoffset: 0; stroke-linejoin: miter; stroke-miterlimit: 4; fill: rgb(255,255,255); fill-rule: nonzero; opacity: 1;"  paint-order="stroke"  transform=" translate(-600, -497.96034786633595)" d="M 699.19 460.56 C 692.6400000000001 440.39 678.5300000000001 423.19 660.97 411.36 C 634.13 393.18 599.0600000000001 388.32 568.1 397.66 C 537.61 406.66 510.74 430.04 500.8 460.56 L 500.8 460.56 C 499.40000000000003 465.27 505.63 468.17 508.35 464.14 C 510.96000000000004 460.14 513.73 456.3 516.72 452.69 C 536.9 427.99 568.13 413.18 599.99 413.39 C 631.85 413.18 663.08 427.97999999999996 683.26 452.69 C 686.25 456.31 689.03 460.14 691.64 464.15 C 694.4 468.17999999999995 700.5699999999999 465.26 699.1899999999999 460.56 Z M 600.01 439.46 C 554.8199999999999 439.46 518.18 468.74 518.18 504.86 C 518.18 540.98 554.8199999999999 570.26 600.01 570.26 C 604.31 570.26 608.54 569.99 612.67 569.48 C 619.0699999999999 569.0600000000001 625.18 582.83 614.02 593.4300000000001 C 606.04 601.0100000000001 636.55 590.8700000000001 655.3 572.7900000000001 C 670.92 557.7300000000001 681.8299999999999 537.08 681.8299999999999 505.7100000000001 L 681.8299999999999 504.86000000000007 L 681.8399999999999 504.86000000000007 C 681.8399999999999 468.74000000000007 645.1999999999999 439.46000000000004 600.0099999999999 439.46000000000004 Z M 693.32 472.84 C 691.4200000000001 482.78999999999996 688.58 513.14 691.47 553.4399999999999 C 708.1700000000001 551.03 722.85 532.02 722.85 511.91999999999996 C 722.85 491.81999999999994 709.97 475.29999999999995 693.32 472.84 Z M 506.68 472.84 C 490.03000000000003 475.29999999999995 477.15 491.82 477.15 511.91999999999996 C 477.15 532.02 491.83 551.03 508.53 553.4399999999999 C 511.41999999999996 513.14 508.58 482.78999999999996 506.67999999999995 472.8399999999999 Z M 601.81 582.13 C 575.8399999999999 585.56 553.7099999999999 579.11 539.3699999999999 572.82 C 523.1299999999999 565.7 513.7299999999999 557.5100000000001 513.6399999999999 557.4300000000001 C 512.1299999999999 556.1 509.7999999999999 556.0600000000001 508.41999999999985 557.35 C 507.03999999999985 558.64 507.14999999999986 560.78 508.67999999999984 562.12 C 508.71999999999986 562.16 508.8899999999998 562.3 509.1299999999998 562.5 C 508.7099999999998 562.31 508.4599999999998 562.2 508.4599999999998 562.2 L 508.4599999999998 562.2 C 508.4599999999998 562.2 524.3699999999998 582.9100000000001 560.1499999999999 590.5500000000001 C 560.1499999999999 590.5500000000001 569.4299999999998 602.9000000000001 582.7099999999998 602.9000000000001 C 595.0899999999998 602.9000000000001 603.1399999999998 593.1200000000001 604.8499999999998 586.5500000000001 C 605.1299999999998 586.0100000000001 605.2399999999998 585.3700000000001 605.1299999999998 584.7 C 604.8599999999998 583.07 603.3799999999998 581.9200000000001 601.8199999999998 582.13 Z" stroke-linecap="round" />
</g>
		<g transform="matrix(0.6221491168936226 0 0 0.6221491168936226 0 5.431361790481333)"  >
<linearGradient id="SVGID_15_149963" gradientUnits="userSpaceOnUse" gradientTransform="matrix(1 0 0 1 559.86 493.04999999999995)"  x1="40.139999999999986" y1="0" x2="40.139999999999986" y2="31.36000000000007">
<stop offset="0%" style="stop-color:rgb(22,42,71);stop-opacity: 1"/>
<stop offset="48.000000000000014%" style="stop-color:rgb(51,98,166);stop-opacity: 1"/>
<stop offset="89%" style="stop-color:rgb(22,42,71);stop-opacity: 1"/>
</linearGradient>
<path style="stroke: none; stroke-width: 1; stroke-dasharray: none; stroke-linecap: butt; stroke-dashoffset: 0; stroke-linejoin: miter; stroke-miterlimit: 4; fill: url(#SVGID_15_149963); fill-rule: nonzero; opacity: 1;"  paint-order="stroke"  transform=" translate(-600, -508.73)" d="M 565.71 493.05 C 562.48 493.05 559.86 495.67 559.86 498.90000000000003 L 559.86 518.5600000000001 C 559.86 521.7900000000001 562.48 524.4100000000001 565.71 524.4100000000001 C 568.94 524.4100000000001 571.5600000000001 521.7900000000001 571.5600000000001 518.5600000000001 L 571.5600000000001 498.90000000000003 C 571.5600000000001 495.67 568.94 493.05 565.71 493.05 Z M 634.29 493.05 C 631.06 493.05 628.4399999999999 495.67 628.4399999999999 498.90000000000003 L 628.4399999999999 518.5600000000001 C 628.4399999999999 521.7900000000001 631.06 524.4100000000001 634.29 524.4100000000001 C 637.52 524.4100000000001 640.14 521.7900000000001 640.14 518.5600000000001 L 640.14 498.90000000000003 C 640.14 495.67 637.52 493.05 634.29 493.05 Z M 600 493.05 C 596.77 493.05 594.15 495.67 594.15 498.90000000000003 L 594.15 518.5600000000001 C 594.15 521.7900000000001 596.77 524.4100000000001 600 524.4100000000001 C 603.23 524.4100000000001 605.85 521.7900000000001 605.85 518.5600000000001 L 605.85 498.90000000000003 C 605.85 495.67 603.23 493.05 600 493.05 Z" stroke-linecap="round" />
</g>
</g>
</g>
<g transform="matrix(1.9211538461538462 0 0 1.9211538461538462 636.8132287286527 553.0060336315671)" id="text-logo"  >
<g style=""  paint-order="stroke"   >
		<g transform="matrix(1 0 0 1 0 0)" id="text-logo-path-0"  >
<linearGradient id="SVGID_149964" gradientUnits="userSpaceOnUse" gradientTransform="matrix(1 0 0 1 0.740000000000002 -14.91)"  x1="67.17675315856928" y1="-3.551940000000002" x2="67.17675315856928" y2="20.448059999999998">
<stop offset="0%" style="stop-color:rgb(22,42,71);stop-opacity: 1"/>
<stop offset="48.000000000000014%" style="stop-color:rgb(51,98,166);stop-opacity: 1"/>
<stop offset="89%" style="stop-color:rgb(22,42,71);stop-opacity: 1"/>
</linearGradient>
<path style="stroke: rgb(255,255,255); stroke-width: 0; stroke-dasharray: none; stroke-linecap: butt; stroke-dashoffset: 0; stroke-linejoin: miter; stroke-miterlimit: 4; fill: url(#SVGID_149964); fill-rule: nonzero; opacity: 1;"  paint-order="stroke"  transform=" translate(-44.03, 7.35)" d="M 8.32 -1.6 C 6.72 -1.6 5.27 -2.23 4.24 -3.28 C 3.19 -4.33 2.56 -5.75 2.54 -7.35 C 2.56 -8.95 3.19 -10.37 4.24 -11.42 C 5.27 -12.45 6.72 -13.1 8.32 -13.1 C 9.89 -13.1 11.34 -12.45 12.37 -11.42 L 12.37 -11.42 L 13.65 -12.68 L 13.65 -12.68 C 12.29 -14.05 10.4 -14.91 8.32 -14.91 C 6.22 -14.91 4.33 -14.05 2.96 -12.68 C 1.6 -11.32 0.74 -9.43 0.74 -7.35 C 0.74 -5.25 1.6 -3.36 2.96 -2 C 4.33 -0.63 6.22 0.21 8.32 0.21 L 8.32 0.21 C 10.4 0.21 12.29 -0.63 13.65 -2 L 12.37 -3.28 C 11.34 -2.23 9.89 -1.6 8.32 -1.6 Z M 27.55 -5.1 L 27.55 -5.27 C 27.45 -8.32 25.22 -10.35 22.41 -10.35 C 19.55 -10.35 17.33 -8.17 17.33 -5.1 C 17.33 -2.23 19.55 0.17 22.41 0.17 C 23.73 0.17 24.86 -0.32 25.73 -1.11 L 25.73 0 L 27.55 0 L 27.55 -4.31 Z M 22.41 -1.62 C 20.62 -1.62 19.21 -3.32 19.21 -5.1 C 19.21 -7.2 20.69 -8.63 22.51 -8.63 C 24.26 -8.63 25.73 -7.27 25.73 -5.1 C 25.73 -2.79 24.19 -1.62 22.41 -1.62 Z M 31.92 0 L 33.73 0 L 33.73 -14.91 L 31.92 -14.91 Z M 38.3 0 L 40.11 0 L 40.11 -14.91 L 38.3 -14.91 Z M 48.83 0 L 48.83 0 L 48.83 0 L 48.83 0 C 49.64 0 50.4 -0.34 50.93 -0.88 L 50.93 -0.88 C 51.47 -1.41 51.81 -2.16 51.81 -2.98 L 51.81 -2.98 C 51.81 -3.82 51.47 -4.58 50.93 -5.1 L 50.93 -5.1 C 50.4 -5.65 49.64 -5.99 48.83 -5.99 L 47.12 -5.99 L 47.12 -5.99 C 46.81 -5.99 46.52 -6.11 46.28 -6.32 L 46.28 -6.32 C 46.07 -6.55 45.95 -6.85 45.95 -7.16 L 45.95 -7.16 C 45.95 -7.5 46.07 -7.79 46.28 -8 L 46.28 -8 C 46.52 -8.23 46.81 -8.36 47.12 -8.36 L 48.83 -8.36 L 48.83 -8.36 C 49.14 -8.36 49.43 -8.23 49.64 -8 L 49.64 -8 C 49.88 -7.79 50 -7.5 50 -7.16 L 51.81 -7.16 L 51.81 -7.16 C 51.81 -8 51.47 -8.76 50.93 -9.28 L 50.93 -9.28 C 50.4 -9.83 49.64 -10.16 48.83 -10.16 L 47.12 -10.16 L 47.12 -10.16 C 46.31 -10.16 45.55 -9.83 45.02 -9.28 L 45.02 -9.28 C 44.48 -8.76 44.14 -8 44.14 -7.16 L 44.14 -7.16 C 44.14 -6.34 44.48 -5.59 45.02 -5.06 L 45.02 -5.06 C 45.55 -4.52 46.31 -4.18 47.12 -4.18 L 48.83 -4.18 L 48.83 -4.18 C 49.14 -4.18 49.43 -4.05 49.64 -3.82 L 49.64 -3.82 C 49.88 -3.61 50 -3.32 50 -2.98 L 50 -2.98 C 50 -2.67 49.88 -2.37 49.64 -2.14 L 49.64 -2.14 C 49.43 -1.93 49.14 -1.81 48.83 -1.81 L 47.12 -1.81 L 47.12 -1.81 C 46.81 -1.81 46.52 -1.93 46.28 -2.14 L 46.28 -2.14 C 46.07 -2.37 45.95 -2.67 45.95 -2.98 L 44.14 -2.98 L 44.14 -2.98 C 44.14 -2.16 44.48 -1.41 45.02 -0.88 L 45.02 -0.88 C 45.55 -0.34 46.31 0 47.12 0 Z M 55.69 -4.6 C 55.69 -1.6 57.48 0.17 60.02 0.17 C 62.54 0.17 64.32 -1.6 64.32 -4.6 L 64.32 -10.16 L 62.5 -10.16 L 62.5 -4.28 C 62.5 -2.69 61.45 -1.62 60.02 -1.62 C 58.55 -1.62 57.48 -2.69 57.48 -4.28 L 57.48 -10.16 L 55.69 -10.16 Z M 68.73 0 L 70.54 0 L 70.54 -4.85 C 70.54 -7.46 71.59 -8.61 74.07 -8.61 L 74.36 -8.61 L 74.36 -10.4 L 73.92 -10.4 C 72.11 -10.4 70.43 -10 69.57 -8.61 C 68.71 -7.27 68.73 -5.06 68.73 -5.06 Z M 87.32 -5.1 C 87.32 -8.25 85.05 -10.37 82.19 -10.37 C 79.32 -10.37 77.11 -8.19 77.11 -5.1 C 77.11 -2.18 79.32 0.17 82.19 0.17 C 84.48 0.17 86.35 -1.18 87.02 -3.28 L 85.16 -3.28 C 84.59 -2.04 83.47 -1.6 82.19 -1.6 C 80.7 -1.6 79.46 -2.75 79.09 -4.18 L 87.25 -4.18 C 87.3 -4.47 87.32 -4.79 87.32 -5.1 Z M 82.28 -8.63 C 83.83 -8.63 85.18 -7.56 85.45 -5.8 L 79 -5.8 C 79.32 -7.52 80.68 -8.63 82.28 -8.63 Z" stroke-linecap="round" />
</g>
</g>
</g>
<g transform="matrix(1.9211538461538462 0 0 1.9211538461538462 598.5873600411231 470.51022647304325)" id="tagline-7afa8fbb-a881-4be0-9f02-5954b0622e8f-logo"  >
<g style=""  paint-order="stroke"   >
		<g transform="matrix(1 0 0 1 0 0)" id="tagline-7afa8fbb-a881-4be0-9f02-5954b0622e8f-logo-path-0"  >
<linearGradient id="SVGID_149965" gradientUnits="userSpaceOnUse" gradientTransform="matrix(1 0 0 1 -1.3599999999999994 -63.1)"  x1="70.75010864257811" y1="-8.98791749999998" x2="70.75010864257814" y2="45.25208250000001">
<stop offset="0%" style="stop-color:rgb(22,42,71);stop-opacity: 1"/>
<stop offset="48.000000000000014%" style="stop-color:rgb(51,98,166);stop-opacity: 1"/>
<stop offset="89%" style="stop-color:rgb(22,42,71);stop-opacity: 1"/>
</linearGradient>
<path style="stroke: rgb(255,255,255); stroke-width: 6.839574155298016; stroke-dasharray: none; stroke-linecap: butt; stroke-dashoffset: 0; stroke-linejoin: miter; stroke-miterlimit: 4; fill: url(#SVGID_149965); fill-rule: nonzero; opacity: 1;"  paint-order="stroke"  transform=" translate(-35.195, 30.75)" d="M 47.37 1.6 L 47.37 1.6 Q 34.03 1.6 34.03 -7.25 L 34.03 -7.25 Q 34.03 -12.29 40.4 -27.41 Q 46.77 -42.52 46.77 -48.37 L 46.77 -48.37 Q 46.77 -51.65 44.34 -53.03 Q 41.92 -54.41 37.34 -54.41 Q 32.75 -54.41 28.03 -53.61 Q 23.3 -52.81 21.96 -52.81 Q 20.62 -52.81 20.62 -54.01 L 20.62 -54.01 Q 20.62 -55.57 26.27 -58.14 L 26.27 -58.14 Q 37.12 -63.1 50.17 -63.1 L 50.17 -63.1 Q 60.5 -63.1 65.64 -59.38 Q 70.79 -55.65 70.79 -47.29 L 70.79 -47.29 Q 70.79 -42.32 69.03 -34.85 Q 67.27 -27.39 65.52 -20.82 Q 63.78 -14.25 63.78 -11.81 Q 63.78 -9.37 64.7 -8.41 L 64.7 -8.41 Q 65.86 -7.21 69.19 -7.21 L 69.19 -7.21 Q 71.23 -7.21 71.49 -6.77 Q 71.75 -6.33 71.75 -5.85 L 71.75 -5.85 Q 71.75 -4 70.07 -2.84 L 70.07 -2.84 Q 63.7 1.6 47.37 1.6 Z M 23.5 -27.39 L 24.06 -27.39 L 34.31 -27.63 Q 37.12 -27.63 37.12 -25.99 L 37.12 -25.99 Q 37.12 -24.82 35.79 -24.14 L 35.79 -24.14 Q 31.15 -21.78 19.78 -21.14 L 19.78 -21.14 Q 16.54 -14.73 16.54 -9.89 L 16.54 -9.89 Q 16.54 -7.73 17.1 -5.91 Q 17.66 -4.08 17.66 -3.28 L 17.66 -3.28 Q 17.66 -1.16 14.97 -0.42 Q 12.29 0.32 7.11 0.32 Q 1.92 0.32 0.28 -0.62 Q -1.36 -1.56 -1.36 -3.96 L -1.36 -3.96 Q -1.36 -8.45 1.26 -13.85 Q 3.88 -19.26 7.97 -24.2 Q 12.05 -29.15 17.02 -33.91 Q 21.98 -38.68 26.67 -42.12 L 26.67 -42.12 Q 37.08 -49.85 40.84 -49.85 L 40.84 -49.85 Q 42.56 -49.85 42.56 -48.81 Q 42.56 -47.77 40.88 -46.49 L 40.88 -46.49 Q 37.32 -43.88 32.35 -38.56 Q 27.39 -33.23 23.5 -27.39 L 23.5 -27.39 Z" stroke-linecap="round" />
</g>
</g>
</g>
<g transform="matrix(1.9211538461538462 0 0 1.9211538461538462 705.5894564876564 471.80310299242257)" id="tagline-6c3ca075-29e4-4faa-aa34-aeea88a66304-logo"  >
<g style=""  paint-order="stroke"   >
		<g transform="matrix(1 0 0 1 0 -2.842171e-14)" id="tagline-6c3ca075-29e4-4faa-aa34-aeea88a66304-logo-path-0"  >
<linearGradient id="SVGID_149966" gradientUnits="userSpaceOnUse" gradientTransform="matrix(1 0 0 1 3.3600000000000003 -58.88)"  x1="66.02549958038324" y1="-13.213480000000033" x2="66.02549958038327" y2="41.026519999999955">
<stop offset="0%" style="stop-color:rgb(22,42,71);stop-opacity: 1"/>
<stop offset="48.000000000000014%" style="stop-color:rgb(51,98,166);stop-opacity: 1"/>
<stop offset="89%" style="stop-color:rgb(22,42,71);stop-opacity: 1"/>
</linearGradient>
<path style="stroke: rgb(255,255,255); stroke-width: 6.839574155298016; stroke-dasharray: none; stroke-linecap: butt; stroke-dashoffset: 0; stroke-linejoin: miter; stroke-miterlimit: 4; fill: url(#SVGID_149966); fill-rule: nonzero; opacity: 1;"  paint-order="stroke"  transform=" translate(-8.73, 28.375)" d="M 8.61 -42.56 C 6.07 -42.56 4.02 -40.51 4.02 -37.97 L 4.02 -2.46 C 4.02 0.08 6.07 2.13 8.61 2.13 C 11.07 2.13 13.45 0.08 13.45 -2.46 L 13.45 -37.97 C 13.45 -40.51 11.07 -42.56 8.61 -42.56 Z M 8.86 -47.4 C 11.81 -47.4 14.1 -50.27 14.1 -53.14 C 14.1 -55.84 12.38 -58.88 9.43 -58.88 C 6.56 -58.88 3.36 -56.09 3.36 -53.14 C 3.36 -50.27 5.9 -47.4 8.86 -47.4 Z" stroke-linecap="round" />
</g>
</g>
</g>
</svg>